<svg xmlns="http://www.w3.org/2000/svg" xmlns:xlink="http://www.w3.org/1999/xlink" width="40" zoomAndPan="magnify" viewBox="0 0 30 30.000001" height="40" preserveAspectRatio="xMidYMid meet" version="1.0"><defs><clipPath id="id1"><path d="M 0.484375 0 L 29.515625 0 L 29.515625 29.03125 L 0.484375 29.03125 Z M 0.484375 0 " clip-rule="nonzero"/></clipPath><clipPath id="id2"><path d="M 0.484375 1 L 29 1 L 29 29.03125 L 0.484375 29.03125 Z M 0.484375 1 " clip-rule="nonzero"/></clipPath></defs><g clip-path="url(#id1)"><path fill="rgb(100%, 100%, 100%)" d="M 0.484375 0 L 29.515625 0 L 29.515625 36.289062 L 0.484375 36.289062 Z M 0.484375 0 " fill-opacity="1" fill-rule="nonzero"/><path fill="rgb(100%, 100%, 100%)" d="M 0.484375 0 L 29.515625 0 L 29.515625 29.03125 L 0.484375 29.03125 Z M 0.484375 0 " fill-opacity="1" fill-rule="nonzero"/><path fill="rgb(100%, 100%, 100%)" d="M 0.484375 0 L 29.515625 0 L 29.515625 29.03125 L 0.484375 29.03125 Z M 0.484375 0 " fill-opacity="1" fill-rule="nonzero"/><path fill="rgb(100%, 100%, 100%)" d="M 0.484375 0 L 29.515625 0 L 29.515625 29.03125 L 0.484375 29.03125 Z M 0.484375 0 " fill-opacity="1" fill-rule="nonzero"/></g><g clip-path="url(#id2)"><path fill="rgb(15.689087%, 15.689087%, 15.689087%)" d="M 27.160156 25.925781 L 27.164062 25.925781 Z M 5.460938 2.324219 C 5.1875 2.324219 4.929688 2.445312 4.648438 2.6875 C 4.617188 2.714844 4.210938 3.089844 3.949219 3.335938 L 3.722656 3.546875 C 2.382812 4.773438 1.777344 6.980469 2.175781 9.171875 C 2.304688 9.878906 2.511719 10.613281 2.792969 11.347656 C 4.207031 15.074219 6.890625 18.308594 8.894531 20.371094 C 10.890625 22.441406 14.046875 25.242188 17.761719 26.828125 C 18.5 27.140625 19.234375 27.382812 19.949219 27.546875 C 22.160156 28.054688 24.441406 27.578125 25.761719 26.335938 L 25.984375 26.132812 C 26.238281 25.894531 26.636719 25.523438 26.695312 25.46875 C 27.515625 24.640625 27.105469 23.953125 25.457031 22.308594 L 25.046875 21.894531 C 24 20.832031 22.25 19.054688 20.765625 19.226562 C 20.363281 19.273438 19.941406 19.5625 19.496094 19.867188 C 19.054688 20.167969 18.597656 20.480469 18.050781 20.652344 C 16.582031 21.109375 15.089844 20.808594 13.851562 19.808594 C 13.109375 19.207031 12.355469 18.507812 11.671875 17.785156 C 10.976562 17.085938 10.304688 16.308594 9.734375 15.554688 C 8.785156 14.289062 8.558594 12.8125 9.101562 11.398438 C 9.304688 10.871094 9.648438 10.441406 9.976562 10.023438 C 10.3125 9.605469 10.628906 9.210938 10.695312 8.816406 C 10.953125 7.375 9.234375 5.566406 8.207031 4.488281 L 7.808594 4.0625 C 6.71875 2.894531 6.058594 2.324219 5.460938 2.324219 Z M 21.734375 29.03125 C 20.996094 29.03125 20.285156 28.945312 19.652344 28.796875 C 18.859375 28.617188 18.050781 28.351562 17.238281 28.003906 C 13.320312 26.335938 10.019531 23.414062 7.945312 21.253906 C 5.855469 19.109375 3.054688 15.726562 1.5625 11.796875 C 1.253906 10.988281 1.027344 10.179688 0.882812 9.398438 C 0.503906 7.320312 0.816406 4.449219 2.824219 2.609375 L 3.046875 2.402344 C 3.328125 2.144531 3.761719 1.738281 3.777344 1.722656 C 5.789062 -0.00390625 7.585938 1.921875 8.773438 3.195312 L 9.167969 3.613281 C 10.359375 4.867188 12.355469 6.964844 11.988281 9.035156 C 11.863281 9.746094 11.410156 10.3125 11.011719 10.816406 C 10.726562 11.171875 10.460938 11.507812 10.328125 11.851562 C 9.941406 12.859375 10.101562 13.875 10.792969 14.789062 C 11.328125 15.5 11.960938 16.230469 12.621094 16.898438 C 13.277344 17.59375 13.988281 18.253906 14.683594 18.816406 C 15.582031 19.539062 16.609375 19.75 17.65625 19.425781 C 18.011719 19.3125 18.371094 19.070312 18.746094 18.8125 C 19.28125 18.449219 19.882812 18.035156 20.613281 17.953125 C 22.75 17.703125 24.777344 19.769531 25.988281 21.003906 L 26.394531 21.410156 C 27.628906 22.640625 29.496094 24.5 27.628906 26.375 C 27.597656 26.402344 27.160156 26.808594 26.882812 27.066406 L 26.671875 27.261719 C 25.289062 28.5625 23.4375 29.03125 21.734375 29.03125 " fill-opacity="1" fill-rule="nonzero"/></g></svg>