<svg xmlns="http://www.w3.org/2000/svg" xmlns:xlink="http://www.w3.org/1999/xlink" width="40" zoomAndPan="magnify" viewBox="0 0 30 30.000001" height="40" preserveAspectRatio="xMidYMid meet" version="1.0"><defs><g/><clipPath id="id1"><path d="M 0.484375 0 L 29.515625 0 L 29.515625 29.03125 L 0.484375 29.03125 Z M 0.484375 0 " clip-rule="nonzero"/></clipPath><clipPath id="id2"><path d="M 7.441406 15 L 11 15 L 11 20.25 L 7.441406 20.25 Z M 7.441406 15 " clip-rule="nonzero"/></clipPath><clipPath id="id3"><path d="M 7.441406 13 L 16 13 L 16 16 L 7.441406 16 Z M 7.441406 13 " clip-rule="nonzero"/></clipPath><clipPath id="id4"><path d="M 7.441406 11 L 11 11 L 11 14 L 7.441406 14 Z M 7.441406 11 " clip-rule="nonzero"/></clipPath><clipPath id="id5"><path d="M 7.441406 8.636719 L 16.152344 8.636719 L 16.152344 12 L 7.441406 12 Z M 7.441406 8.636719 " clip-rule="nonzero"/></clipPath></defs><g clip-path="url(#id1)"><path fill="rgb(100%, 100%, 100%)" d="M 0.484375 0 L 29.515625 0 L 29.515625 36.289062 L 0.484375 36.289062 Z M 0.484375 0 " fill-opacity="1" fill-rule="nonzero"/><path fill="rgb(0%, 0%, 0%)" d="M 0.484375 0 L 29.515625 0 L 29.515625 29.03125 L 0.484375 29.03125 Z M 0.484375 0 " fill-opacity="1" fill-rule="nonzero"/><path fill="rgb(100%, 100%, 100%)" d="M 0.484375 0 L 29.515625 0 L 29.515625 29.03125 L 0.484375 29.03125 Z M 0.484375 0 " fill-opacity="1" fill-rule="nonzero"/><path fill="rgb(0%, 0%, 0%)" d="M 0.484375 0 L 29.515625 0 L 29.515625 29.03125 L 0.484375 29.03125 Z M 0.484375 0 " fill-opacity="1" fill-rule="nonzero"/></g><g clip-path="url(#id2)"><path fill="rgb(84.709167%, 64.709473%, 12.939453%)" d="M 10.09375 15.8125 L 10.09375 17.769531 C 10.09375 19.132812 8.957031 20.242188 7.558594 20.242188 L 7.558594 15.8125 Z M 10.09375 15.8125 " fill-opacity="1" fill-rule="nonzero"/></g><g clip-path="url(#id3)"><path fill="rgb(100%, 100%, 100%)" d="M 10.09375 13.339844 L 7.558594 15.8125 L 12.648438 15.8125 C 14.046875 15.8125 15.183594 14.703125 15.183594 13.339844 Z M 10.09375 13.339844 " fill-opacity="1" fill-rule="nonzero"/></g><g clip-path="url(#id4)"><path fill="rgb(84.709167%, 64.709473%, 12.939453%)" d="M 7.558594 11.117188 L 10.09375 11.117188 L 10.09375 13.335938 L 7.558594 13.335938 Z M 7.558594 11.117188 " fill-opacity="1" fill-rule="nonzero"/></g><g clip-path="url(#id5)"><path fill="rgb(100%, 100%, 100%)" d="M 10.09375 8.644531 L 7.558594 11.117188 L 13.550781 11.117188 C 14.949219 11.117188 16.085938 10.007812 16.085938 8.644531 Z M 10.09375 8.644531 " fill-opacity="1" fill-rule="nonzero"/></g><g fill="rgb(100%, 100%, 100%)" fill-opacity="1"><g transform="translate(12.010305, 18.178723)"><g><path d="M 0.0976562 0 L 0.714844 0 L 0.730469 -0.101562 L 0.226562 -0.101562 L 0.28125 -0.453125 L 0.746094 -0.453125 L 0.761719 -0.550781 L 0.296875 -0.550781 L 0.347656 -0.882812 L 0.839844 -0.882812 L 0.855469 -0.980469 L 0.25 -0.980469 Z M 0.0976562 0 "/></g></g></g><g fill="rgb(100%, 100%, 100%)" fill-opacity="1"><g transform="translate(12.943529, 18.178723)"><g><path d="M 0.714844 0 L 0.828125 0 L 0.667969 -0.996094 L 0.539062 -0.980469 L 0.0078125 0 L 0.132812 0 L 0.285156 -0.289062 L 0.675781 -0.289062 Z M 0.335938 -0.382812 L 0.503906 -0.710938 L 0.585938 -0.867188 L 0.589844 -0.867188 L 0.613281 -0.710938 L 0.660156 -0.382812 Z M 0.335938 -0.382812 "/></g></g></g><g fill="rgb(100%, 100%, 100%)" fill-opacity="1"><g transform="translate(13.930958, 18.178723)"><g><path d="M 0.421875 0.015625 C 0.636719 0.015625 0.78125 -0.0898438 0.785156 -0.253906 C 0.785156 -0.382812 0.707031 -0.472656 0.527344 -0.542969 C 0.382812 -0.597656 0.316406 -0.664062 0.316406 -0.753906 C 0.316406 -0.84375 0.386719 -0.894531 0.507812 -0.894531 C 0.601562 -0.894531 0.664062 -0.863281 0.714844 -0.789062 L 0.796875 -0.855469 C 0.742188 -0.949219 0.640625 -0.996094 0.511719 -0.996094 C 0.324219 -0.996094 0.203125 -0.894531 0.199219 -0.738281 C 0.195312 -0.613281 0.273438 -0.527344 0.457031 -0.457031 C 0.605469 -0.398438 0.667969 -0.339844 0.667969 -0.257812 C 0.664062 -0.152344 0.570312 -0.0898438 0.429688 -0.0898438 C 0.316406 -0.0898438 0.238281 -0.136719 0.179688 -0.226562 L 0.0898438 -0.160156 C 0.152344 -0.0546875 0.261719 0.015625 0.421875 0.015625 Z M 0.421875 0.015625 "/></g></g></g><g fill="rgb(100%, 100%, 100%)" fill-opacity="1"><g transform="translate(14.880297, 18.178723)"><g><path d="M 0.339844 0 L 0.453125 0 L 0.511719 -0.375 L 0.949219 -0.996094 L 0.804688 -0.980469 L 0.550781 -0.617188 L 0.46875 -0.496094 L 0.417969 -0.617188 L 0.257812 -0.980469 L 0.136719 -0.980469 L 0.398438 -0.382812 Z M 0.339844 0 "/></g></g></g><g fill="rgb(100%, 100%, 100%)" fill-opacity="1"><g transform="translate(15.82817, 18.178723)"><g/></g></g><g fill="rgb(100%, 100%, 100%)" fill-opacity="1"><g transform="translate(16.228124, 18.178723)"><g><path d="M 0.816406 -0.882812 L 0.832031 -0.980469 L 0.25 -0.980469 L 0.0976562 0 L 0.210938 0 L 0.273438 -0.410156 L 0.714844 -0.410156 L 0.730469 -0.511719 L 0.289062 -0.511719 L 0.347656 -0.882812 Z M 0.816406 -0.882812 "/></g></g></g><g fill="rgb(100%, 100%, 100%)" fill-opacity="1"><g transform="translate(17.126185, 18.178723)"><g><path d="M 0.0976562 0 L 0.210938 0 L 0.363281 -0.996094 L 0.25 -0.980469 Z M 0.0976562 0 "/></g></g></g><g fill="rgb(100%, 100%, 100%)" fill-opacity="1"><g transform="translate(17.586203, 18.178723)"><g><path d="M 0.0976562 0 L 0.210938 0 L 0.304688 -0.617188 L 0.335938 -0.816406 L 0.339844 -0.816406 L 0.394531 -0.683594 L 0.710938 0 L 0.828125 0 L 0.984375 -0.996094 L 0.871094 -0.980469 L 0.761719 -0.300781 L 0.75 -0.167969 L 0.746094 -0.167969 L 0.671875 -0.351562 L 0.375 -0.980469 L 0.25 -0.980469 Z M 0.0976562 0 "/></g></g></g><g fill="rgb(100%, 100%, 100%)" fill-opacity="1"><g transform="translate(18.66593, 18.178723)"><g><path d="M 0.714844 0 L 0.828125 0 L 0.667969 -0.996094 L 0.539062 -0.980469 L 0.0078125 0 L 0.132812 0 L 0.285156 -0.289062 L 0.675781 -0.289062 Z M 0.335938 -0.382812 L 0.503906 -0.710938 L 0.585938 -0.867188 L 0.589844 -0.867188 L 0.613281 -0.710938 L 0.660156 -0.382812 Z M 0.335938 -0.382812 "/></g></g></g><g fill="rgb(100%, 100%, 100%)" fill-opacity="1"><g transform="translate(19.653359, 18.178723)"><g><path d="M 0.0976562 0 L 0.210938 0 L 0.304688 -0.617188 L 0.335938 -0.816406 L 0.339844 -0.816406 L 0.394531 -0.683594 L 0.710938 0 L 0.828125 0 L 0.984375 -0.996094 L 0.871094 -0.980469 L 0.761719 -0.300781 L 0.75 -0.167969 L 0.746094 -0.167969 L 0.671875 -0.351562 L 0.375 -0.980469 L 0.25 -0.980469 Z M 0.0976562 0 "/></g></g></g><g fill="rgb(100%, 100%, 100%)" fill-opacity="1"><g transform="translate(20.733086, 18.178723)"><g><path d="M 0.453125 0.015625 C 0.5625 0.015625 0.664062 -0.0195312 0.765625 -0.0898438 L 0.734375 -0.1875 C 0.640625 -0.121094 0.550781 -0.0898438 0.460938 -0.0898438 C 0.289062 -0.0898438 0.207031 -0.207031 0.21875 -0.429688 C 0.230469 -0.707031 0.378906 -0.894531 0.585938 -0.894531 C 0.675781 -0.894531 0.730469 -0.863281 0.78125 -0.789062 L 0.863281 -0.855469 C 0.808594 -0.949219 0.710938 -0.996094 0.589844 -0.996094 C 0.316406 -0.996094 0.113281 -0.753906 0.101562 -0.417969 C 0.0898438 -0.140625 0.214844 0.015625 0.453125 0.015625 Z M 0.453125 0.015625 "/></g></g></g><g fill="rgb(100%, 100%, 100%)" fill-opacity="1"><g transform="translate(21.68389, 18.178723)"><g><path d="M 0.0976562 0 L 0.714844 0 L 0.730469 -0.101562 L 0.226562 -0.101562 L 0.28125 -0.453125 L 0.746094 -0.453125 L 0.761719 -0.550781 L 0.296875 -0.550781 L 0.347656 -0.882812 L 0.839844 -0.882812 L 0.855469 -0.980469 L 0.25 -0.980469 Z M 0.0976562 0 "/></g></g></g></svg>