<svg xmlns="http://www.w3.org/2000/svg" xmlns:xlink="http://www.w3.org/1999/xlink" width="40" zoomAndPan="magnify" viewBox="0 0 30 30.000001" height="40" preserveAspectRatio="xMidYMid meet" version="1.0"><defs><clipPath id="id1"><path d="M 0.484375 0 L 29.515625 0 L 29.515625 29.03125 L 0.484375 29.03125 Z M 0.484375 0 " clip-rule="nonzero"/></clipPath></defs><g clip-path="url(#id1)"><path fill="rgb(100%, 100%, 100%)" d="M 0.484375 0 L 29.515625 0 L 29.515625 36.289062 L 0.484375 36.289062 Z M 0.484375 0 " fill-opacity="1" fill-rule="nonzero"/><path fill="rgb(100%, 100%, 100%)" d="M 0.484375 0 L 29.515625 0 L 29.515625 29.03125 L 0.484375 29.03125 Z M 0.484375 0 " fill-opacity="1" fill-rule="nonzero"/><path fill="rgb(100%, 100%, 100%)" d="M 0.484375 0 L 29.515625 0 L 29.515625 29.03125 L 0.484375 29.03125 Z M 0.484375 0 " fill-opacity="1" fill-rule="nonzero"/><path fill="rgb(100%, 100%, 100%)" d="M 0.484375 0 L 29.515625 0 L 29.515625 29.03125 L 0.484375 29.03125 Z M 0.484375 0 " fill-opacity="1" fill-rule="nonzero"/><path fill="rgb(0%, 0%, 0%)" d="M 24.195312 0 L 5.804688 0 C 2.871094 0 0.484375 2.386719 0.484375 5.324219 L 0.484375 23.710938 C 0.484375 26.644531 2.871094 29.03125 5.804688 29.03125 L 14.691406 29.03125 L 14.691406 18.386719 L 12.628906 18.386719 L 12.628906 14.773438 L 14.691406 14.773438 L 14.691406 14.164062 C 14.691406 12.261719 15.269531 10.164062 16.691406 8.875 C 17.914062 7.714844 19.621094 7.296875 21.042969 7.296875 C 22.136719 7.296875 22.976562 7.425781 23.652344 7.621094 L 23.457031 11.390625 C 23.039062 11.261719 22.523438 11.164062 21.878906 11.164062 C 20.265625 11.164062 19.589844 12.421875 19.589844 13.96875 L 19.589844 14.773438 L 22.75 14.773438 L 22.75 18.386719 L 19.621094 18.386719 L 19.621094 29.03125 L 24.195312 29.03125 C 27.128906 29.03125 29.515625 26.644531 29.515625 23.710938 L 29.515625 5.324219 C 29.515625 2.386719 27.128906 0 24.195312 0 Z M 24.195312 0 " fill-opacity="1" fill-rule="nonzero"/></g></svg>