<svg xmlns="http://www.w3.org/2000/svg" xmlns:xlink="http://www.w3.org/1999/xlink" width="40" zoomAndPan="magnify" viewBox="0 0 30 30.000001" height="40" preserveAspectRatio="xMidYMid meet" version="1.0"><defs><clipPath id="id1"><path d="M 0.484375 0 L 29.515625 0 L 29.515625 29.03125 L 0.484375 29.03125 Z M 0.484375 0 " clip-rule="nonzero"/></clipPath><clipPath id="id2"><path d="M 0.484375 0 L 29.515625 0 L 29.515625 29 L 0.484375 29 Z M 0.484375 0 " clip-rule="nonzero"/></clipPath></defs><g clip-path="url(#id1)"><path fill="rgb(100%, 100%, 100%)" d="M 0.484375 0 L 29.515625 0 L 29.515625 36.289062 L 0.484375 36.289062 Z M 0.484375 0 " fill-opacity="1" fill-rule="nonzero"/><path fill="rgb(100%, 100%, 100%)" d="M 0.484375 0 L 29.515625 0 L 29.515625 29.03125 L 0.484375 29.03125 Z M 0.484375 0 " fill-opacity="1" fill-rule="nonzero"/><path fill="rgb(100%, 100%, 100%)" d="M 0.484375 0 L 29.515625 0 L 29.515625 29.03125 L 0.484375 29.03125 Z M 0.484375 0 " fill-opacity="1" fill-rule="nonzero"/><path fill="rgb(100%, 100%, 100%)" d="M 0.484375 0 L 29.515625 0 L 29.515625 29.03125 L 0.484375 29.03125 Z M 0.484375 0 " fill-opacity="1" fill-rule="nonzero"/></g><path fill="rgb(0%, 0%, 0%)" d="M 17.613281 12.425781 C 16.371094 12.425781 15.816406 13.109375 15.507812 13.585938 L 15.507812 12.59375 L 13.167969 12.59375 C 13.199219 13.25 13.167969 19.625 13.167969 19.625 L 15.507812 19.625 L 15.507812 15.695312 C 15.507812 15.488281 15.519531 15.277344 15.582031 15.125 C 15.753906 14.707031 16.136719 14.269531 16.78125 14.269531 C 17.628906 14.269531 17.96875 14.917969 17.96875 15.863281 L 17.96875 19.625 L 20.304688 19.625 L 20.304688 15.589844 C 20.304688 13.429688 19.152344 12.425781 17.613281 12.425781 Z M 15.507812 13.613281 L 15.492188 13.613281 C 15.496094 13.605469 15.5 13.597656 15.507812 13.589844 Z M 15.507812 13.613281 " fill-opacity="1" fill-rule="nonzero"/><path fill="rgb(0%, 0%, 0%)" d="M 9.535156 12.59375 L 11.875 12.59375 L 11.875 19.625 L 9.535156 19.625 Z M 9.535156 12.59375 " fill-opacity="1" fill-rule="nonzero"/><g clip-path="url(#id2)"><path fill="rgb(0%, 0%, 0%)" d="M 14.972656 -0.015625 C 6.972656 -0.015625 0.46875 6.492188 0.46875 14.488281 C 0.46875 22.484375 6.972656 28.988281 14.972656 28.988281 C 22.96875 28.988281 29.472656 22.484375 29.472656 14.488281 C 29.472656 6.492188 22.96875 -0.015625 14.972656 -0.015625 Z M 22.660156 21.046875 C 22.660156 21.660156 22.148438 22.160156 21.515625 22.160156 L 8.324219 22.160156 C 7.695312 22.160156 7.183594 21.664062 7.183594 21.046875 L 7.183594 7.703125 C 7.183594 7.085938 7.695312 6.585938 8.324219 6.585938 L 21.515625 6.585938 C 22.148438 6.585938 22.660156 7.085938 22.660156 7.703125 Z M 22.660156 21.046875 " fill-opacity="1" fill-rule="nonzero"/></g><path fill="rgb(0%, 0%, 0%)" d="M 10.722656 9.199219 C 9.921875 9.199219 9.398438 9.726562 9.398438 10.414062 C 9.398438 11.089844 9.90625 11.632812 10.691406 11.632812 L 10.707031 11.632812 C 11.519531 11.632812 12.027344 11.089844 12.027344 10.414062 C 12.011719 9.726562 11.519531 9.199219 10.722656 9.199219 Z M 10.722656 9.199219 " fill-opacity="1" fill-rule="nonzero"/></svg>