<svg xmlns="http://www.w3.org/2000/svg" xmlns:xlink="http://www.w3.org/1999/xlink" width="40" zoomAndPan="magnify" viewBox="0 0 30 30.000001" height="40" preserveAspectRatio="xMidYMid meet" version="1.0"><defs><clipPath id="id1"><path d="M 0.484375 0 L 29.515625 0 L 29.515625 29.03125 L 0.484375 29.03125 Z M 0.484375 0 " clip-rule="nonzero"/></clipPath><clipPath id="id2"><path d="M 0.484375 2.558594 L 28.789062 2.558594 L 28.789062 25.785156 L 0.484375 25.785156 Z M 0.484375 2.558594 " clip-rule="nonzero"/></clipPath></defs><g clip-path="url(#id1)"><path fill="rgb(100%, 100%, 100%)" d="M 0.484375 0 L 29.515625 0 L 29.515625 36.289062 L 0.484375 36.289062 Z M 0.484375 0 " fill-opacity="1" fill-rule="nonzero"/><path fill="rgb(100%, 100%, 100%)" d="M 0.484375 0 L 29.515625 0 L 29.515625 29.03125 L 0.484375 29.03125 Z M 0.484375 0 " fill-opacity="1" fill-rule="nonzero"/><path fill="rgb(100%, 100%, 100%)" d="M 0.484375 0 L 29.515625 0 L 29.515625 29.03125 L 0.484375 29.03125 Z M 0.484375 0 " fill-opacity="1" fill-rule="nonzero"/><path fill="rgb(100%, 100%, 100%)" d="M 0.484375 0 L 29.515625 0 L 29.515625 29.03125 L 0.484375 29.03125 Z M 0.484375 0 " fill-opacity="1" fill-rule="nonzero"/></g><g clip-path="url(#id2)"><path fill="rgb(6.269836%, 5.879211%, 5.099487%)" d="M 24.9375 8.464844 C 24.808594 8.582031 24.742188 8.75 24.753906 8.921875 C 24.753906 8.953125 24.945312 12.054688 23.558594 15.507812 C 21.707031 20.121094 18.054688 23.101562 12.71875 24.359375 C 12.660156 24.371094 7.722656 25.390625 3.390625 23.335938 C 5.242188 23.261719 7.808594 22.738281 9.613281 20.71875 C 9.765625 20.550781 9.800781 20.292969 9.707031 20.085938 C 9.617188 19.878906 9.410156 19.730469 9.183594 19.730469 C 9.183594 19.730469 9.179688 19.730469 9.179688 19.730469 C 9.027344 19.730469 6.414062 19.710938 5.160156 17.195312 C 5.667969 17.214844 6.273438 17.1875 6.761719 16.960938 C 6.984375 16.859375 7.117188 16.628906 7.089844 16.382812 C 7.0625 16.140625 6.882812 15.941406 6.640625 15.890625 C 6.5 15.859375 3.472656 15.1875 3.003906 11.910156 C 3.46875 12.105469 4.050781 12.253906 4.625 12.167969 C 4.847656 12.136719 5.027344 11.976562 5.089844 11.761719 C 5.152344 11.546875 5.085938 11.316406 4.917969 11.171875 C 4.785156 11.058594 1.933594 8.527344 3.238281 5.261719 C 4.785156 6.867188 9.199219 10.863281 14.546875 10.558594 C 14.71875 10.546875 14.875 10.464844 14.976562 10.324219 C 15.078125 10.1875 15.113281 10.011719 15.070312 9.847656 C 14.972656 9.449219 14.917969 9.035156 14.917969 8.621094 C 14.917969 5.910156 17.097656 3.703125 19.777344 3.703125 C 21.085938 3.703125 22.316406 4.222656 23.238281 5.167969 C 23.34375 5.277344 23.488281 5.339844 23.640625 5.34375 C 24.171875 5.347656 25.042969 5.289062 26.03125 4.925781 C 25.738281 5.269531 25.324219 5.671875 24.75 6.121094 C 24.550781 6.277344 24.476562 6.542969 24.570312 6.78125 C 24.664062 7.015625 24.902344 7.164062 25.152344 7.140625 C 25.265625 7.132812 25.828125 7.082031 26.488281 6.949219 C 26.109375 7.347656 25.605469 7.847656 24.9375 8.464844 Z M 28.460938 5.269531 C 28.253906 5.132812 27.988281 5.140625 27.789062 5.285156 C 27.59375 5.4375 27.269531 5.566406 26.902344 5.671875 C 27.90625 4.503906 27.925781 3.726562 27.914062 3.542969 C 27.902344 3.332031 27.777344 3.148438 27.585938 3.0625 C 27.398438 2.972656 27.175781 2.992188 27.003906 3.117188 C 25.800781 3.988281 24.605469 4.175781 23.882812 4.199219 C 22.765625 3.140625 21.316406 2.558594 19.777344 2.558594 C 16.464844 2.558594 13.773438 5.277344 13.773438 8.621094 C 13.773438 8.890625 13.789062 9.160156 13.824219 9.429688 C 8.171875 9.332031 3.582031 3.941406 3.535156 3.886719 C 3.414062 3.742188 3.234375 3.664062 3.042969 3.683594 C 2.859375 3.699219 2.691406 3.804688 2.597656 3.964844 C 1.003906 6.722656 1.976562 9.152344 2.953125 10.609375 C 2.851562 10.546875 2.769531 10.492188 2.714844 10.449219 C 2.542969 10.324219 2.3125 10.300781 2.117188 10.398438 C 1.925781 10.492188 1.800781 10.6875 1.796875 10.902344 C 1.753906 13.542969 2.992188 15.085938 4.195312 15.964844 C 4.066406 15.980469 3.945312 16.042969 3.851562 16.144531 C 3.714844 16.292969 3.667969 16.503906 3.726562 16.695312 C 4.558594 19.417969 6.585938 20.382812 7.921875 20.726562 C 5.21875 22.757812 1.296875 22.09375 1.253906 22.085938 C 0.996094 22.039062 0.734375 22.175781 0.628906 22.417969 C 0.519531 22.660156 0.59375 22.945312 0.804688 23.105469 C 3.6875 25.296875 7.136719 25.78125 9.625 25.78125 C 11.507812 25.78125 12.84375 25.503906 12.972656 25.476562 C 25.535156 22.511719 25.933594 11.078125 25.90625 9.128906 C 28.261719 6.941406 28.632812 6.101562 28.691406 5.894531 C 28.757812 5.65625 28.664062 5.40625 28.460938 5.269531 " fill-opacity="1" fill-rule="nonzero"/></g></svg>